<?xml version="1.0" encoding="UTF-8"?>
<svg id="_레이어_1" data-name="레이어 1" xmlns="http://www.w3.org/2000/svg" viewBox="0 0 48.1 36.36">
  <defs>
    <style>
      .cls-1 {
        fill: #ff0384;
        stroke-width: 0px;
      }
    </style>
  </defs>
  <path class="cls-1" d="m45.3,6.05H2.7c-1.5,0-2.7-.98-2.7-2.12v-1.72C0,.98,1.2,0,2.7,0h42.7c1.4,0,2.6.98,2.6,2.21v1.72c0,1.14-1.2,2.12-2.7,2.12Z"/>
  <path class="cls-1" d="m45.3,21.2H2.7c-1.5,0-2.7-.98-2.7-2.21v-1.72c0-1.23,1.2-2.21,2.7-2.21h42.7c1.5,0,2.7.98,2.7,2.21v1.72c-.1,1.23-1.3,2.21-2.8,2.21Z"/>
  <path class="cls-1" d="m45.3,36.36H2.7c-1.5,0-2.7-.98-2.7-2.21v-1.72c0-1.23,1.2-2.21,2.7-2.21h42.7c1.5,0,2.7.98,2.7,2.21v1.72c-.1,1.23-1.3,2.21-2.8,2.21Z"/>
</svg>